<mxfile host="www.draw.io" modified="2020-08-06T03:39:51.881Z" agent="5.0 (Windows NT 6.1; Win64; x64) AppleWebKit/537.36 (KHTML, like Gecko) Chrome/84.0.4147.105 Safari/537.36" etag="ArTRYR6vLudL8A1bDOzx" version="13.4.8" type="github">
  <diagram id="M3a05BpOKp6wVochIiBv" name="Page-1">
    <mxGraphModel dx="773" dy="437" grid="1" gridSize="10" guides="1" tooltips="1" connect="1" arrows="1" fold="1" page="1" pageScale="1" pageWidth="850" pageHeight="1100" math="0" shadow="0">
      <root>
        <mxCell id="0" />
        <mxCell id="1" parent="0" />
        <mxCell id="noanhydr59FI3f60KECd-28" value="GSSS" style="rounded=0;whiteSpace=wrap;html=1;strokeColor=#CCCCCC;" vertex="1" parent="1">
          <mxGeometry x="110" y="960" width="190" height="30" as="geometry" />
        </mxCell>
        <mxCell id="noanhydr59FI3f60KECd-29" value="" style="rounded=0;whiteSpace=wrap;html=1;strokeColor=#CCCCCC;" vertex="1" parent="1">
          <mxGeometry x="110" y="990" width="190" height="740" as="geometry" />
        </mxCell>
        <mxCell id="noanhydr59FI3f60KECd-31" style="edgeStyle=orthogonalEdgeStyle;rounded=0;orthogonalLoop=1;jettySize=auto;html=1;endArrow=classic;endFill=1;entryX=0;entryY=0.25;entryDx=0;entryDy=0;" edge="1" parent="1" target="noanhydr59FI3f60KECd-20">
          <mxGeometry relative="1" as="geometry">
            <mxPoint x="265" y="1032" as="sourcePoint" />
            <mxPoint x="440" y="980" as="targetPoint" />
            <Array as="points">
              <mxPoint x="360" y="1032" />
              <mxPoint x="360" y="1030" />
            </Array>
          </mxGeometry>
        </mxCell>
        <mxCell id="noanhydr59FI3f60KECd-35" value="party_type, start date, end date" style="edgeLabel;html=1;align=center;verticalAlign=middle;resizable=0;points=[];" vertex="1" connectable="0" parent="noanhydr59FI3f60KECd-31">
          <mxGeometry x="-0.2721" y="3" relative="1" as="geometry">
            <mxPoint x="31" as="offset" />
          </mxGeometry>
        </mxCell>
        <mxCell id="noanhydr59FI3f60KECd-42" style="edgeStyle=orthogonalEdgeStyle;rounded=0;orthogonalLoop=1;jettySize=auto;html=1;entryX=0.5;entryY=0;entryDx=0;entryDy=0;endArrow=classic;endFill=1;" edge="1" parent="1" source="noanhydr59FI3f60KECd-30" target="noanhydr59FI3f60KECd-41">
          <mxGeometry relative="1" as="geometry" />
        </mxCell>
        <mxCell id="noanhydr59FI3f60KECd-30" value="Retrieve data" style="rounded=0;whiteSpace=wrap;html=1;" vertex="1" parent="1">
          <mxGeometry x="145" y="1010" width="120" height="110" as="geometry" />
        </mxCell>
        <mxCell id="noanhydr59FI3f60KECd-33" style="edgeStyle=orthogonalEdgeStyle;rounded=0;orthogonalLoop=1;jettySize=auto;html=1;endArrow=classic;endFill=1;entryX=0.994;entryY=0.418;entryDx=0;entryDy=0;entryPerimeter=0;" edge="1" parent="1" source="noanhydr59FI3f60KECd-20" target="noanhydr59FI3f60KECd-30">
          <mxGeometry relative="1" as="geometry">
            <mxPoint x="290" y="1055" as="targetPoint" />
            <Array as="points">
              <mxPoint x="430" y="1056" />
              <mxPoint x="430" y="1056" />
            </Array>
          </mxGeometry>
        </mxCell>
        <mxCell id="noanhydr59FI3f60KECd-36" value="xml" style="edgeLabel;html=1;align=center;verticalAlign=middle;resizable=0;points=[];" vertex="1" connectable="0" parent="noanhydr59FI3f60KECd-33">
          <mxGeometry x="-0.1501" relative="1" as="geometry">
            <mxPoint as="offset" />
          </mxGeometry>
        </mxCell>
        <mxCell id="noanhydr59FI3f60KECd-20" value="FN3 Webservice" style="rounded=0;whiteSpace=wrap;html=1;fillColor=#d5e8d4;strokeColor=#82b366;" vertex="1" parent="1">
          <mxGeometry x="520" y="1020" width="120" height="40" as="geometry" />
        </mxCell>
        <mxCell id="noanhydr59FI3f60KECd-21" value="PVE Webservice" style="rounded=0;whiteSpace=wrap;html=1;fillColor=#dae8fc;strokeColor=#6c8ebf;" vertex="1" parent="1">
          <mxGeometry x="520" y="1080" width="120" height="40" as="geometry" />
        </mxCell>
        <mxCell id="noanhydr59FI3f60KECd-37" style="edgeStyle=orthogonalEdgeStyle;rounded=0;orthogonalLoop=1;jettySize=auto;html=1;endArrow=classic;endFill=1;entryX=0;entryY=0.25;entryDx=0;entryDy=0;" edge="1" parent="1">
          <mxGeometry relative="1" as="geometry">
            <mxPoint x="265" y="1092" as="sourcePoint" />
            <mxPoint x="520" y="1090" as="targetPoint" />
            <Array as="points">
              <mxPoint x="360" y="1092" />
              <mxPoint x="360" y="1090" />
            </Array>
          </mxGeometry>
        </mxCell>
        <mxCell id="noanhydr59FI3f60KECd-38" value="party_type, start date, end date" style="edgeLabel;html=1;align=center;verticalAlign=middle;resizable=0;points=[];" vertex="1" connectable="0" parent="noanhydr59FI3f60KECd-37">
          <mxGeometry x="-0.2721" y="3" relative="1" as="geometry">
            <mxPoint x="31" as="offset" />
          </mxGeometry>
        </mxCell>
        <mxCell id="noanhydr59FI3f60KECd-39" style="edgeStyle=orthogonalEdgeStyle;rounded=0;orthogonalLoop=1;jettySize=auto;html=1;endArrow=classic;endFill=1;entryX=0.994;entryY=0.418;entryDx=0;entryDy=0;entryPerimeter=0;" edge="1" parent="1">
          <mxGeometry relative="1" as="geometry">
            <mxPoint x="520.72" y="1110.02" as="sourcePoint" />
            <mxPoint x="265" y="1110" as="targetPoint" />
            <Array as="points">
              <mxPoint x="430.72" y="1110.02" />
              <mxPoint x="430.72" y="1110.02" />
            </Array>
          </mxGeometry>
        </mxCell>
        <mxCell id="noanhydr59FI3f60KECd-40" value="xml" style="edgeLabel;html=1;align=center;verticalAlign=middle;resizable=0;points=[];" vertex="1" connectable="0" parent="noanhydr59FI3f60KECd-39">
          <mxGeometry x="-0.1501" relative="1" as="geometry">
            <mxPoint as="offset" />
          </mxGeometry>
        </mxCell>
        <mxCell id="noanhydr59FI3f60KECd-47" style="edgeStyle=orthogonalEdgeStyle;rounded=0;orthogonalLoop=1;jettySize=auto;html=1;endArrow=classic;endFill=1;" edge="1" parent="1" source="noanhydr59FI3f60KECd-41" target="noanhydr59FI3f60KECd-43">
          <mxGeometry relative="1" as="geometry" />
        </mxCell>
        <mxCell id="noanhydr59FI3f60KECd-41" value="Merge data (FN3+ PVE)" style="rounded=0;whiteSpace=wrap;html=1;" vertex="1" parent="1">
          <mxGeometry x="145" y="1170" width="120" height="40" as="geometry" />
        </mxCell>
        <mxCell id="noanhydr59FI3f60KECd-48" style="edgeStyle=orthogonalEdgeStyle;rounded=0;orthogonalLoop=1;jettySize=auto;html=1;entryX=0.5;entryY=0;entryDx=0;entryDy=0;endArrow=classic;endFill=1;" edge="1" parent="1" source="noanhydr59FI3f60KECd-43" target="noanhydr59FI3f60KECd-44">
          <mxGeometry relative="1" as="geometry" />
        </mxCell>
        <mxCell id="noanhydr59FI3f60KECd-43" value="Create CSV&amp;nbsp;" style="rounded=0;whiteSpace=wrap;html=1;" vertex="1" parent="1">
          <mxGeometry x="145" y="1250" width="120" height="40" as="geometry" />
        </mxCell>
        <mxCell id="noanhydr59FI3f60KECd-49" style="edgeStyle=orthogonalEdgeStyle;rounded=0;orthogonalLoop=1;jettySize=auto;html=1;entryX=0.5;entryY=0;entryDx=0;entryDy=0;endArrow=classic;endFill=1;" edge="1" parent="1" source="noanhydr59FI3f60KECd-44" target="noanhydr59FI3f60KECd-45">
          <mxGeometry relative="1" as="geometry" />
        </mxCell>
        <mxCell id="noanhydr59FI3f60KECd-44" value="Packaging CSV files (TAR)" style="rounded=0;whiteSpace=wrap;html=1;" vertex="1" parent="1">
          <mxGeometry x="145" y="1330" width="120" height="40" as="geometry" />
        </mxCell>
        <mxCell id="noanhydr59FI3f60KECd-50" style="edgeStyle=orthogonalEdgeStyle;rounded=0;orthogonalLoop=1;jettySize=auto;html=1;entryX=0.5;entryY=0;entryDx=0;entryDy=0;endArrow=classic;endFill=1;" edge="1" parent="1" source="noanhydr59FI3f60KECd-45" target="noanhydr59FI3f60KECd-46">
          <mxGeometry relative="1" as="geometry" />
        </mxCell>
        <mxCell id="noanhydr59FI3f60KECd-45" value="Create summary file" style="rounded=0;whiteSpace=wrap;html=1;" vertex="1" parent="1">
          <mxGeometry x="145" y="1410" width="120" height="40" as="geometry" />
        </mxCell>
        <mxCell id="noanhydr59FI3f60KECd-55" style="edgeStyle=orthogonalEdgeStyle;rounded=0;orthogonalLoop=1;jettySize=auto;html=1;entryX=0.5;entryY=0;entryDx=0;entryDy=0;endArrow=classic;endFill=1;" edge="1" parent="1" source="noanhydr59FI3f60KECd-46" target="noanhydr59FI3f60KECd-54">
          <mxGeometry relative="1" as="geometry" />
        </mxCell>
        <mxCell id="noanhydr59FI3f60KECd-46" value="ZIP summary + TAR file&lt;br&gt;&amp;nbsp;" style="rounded=0;whiteSpace=wrap;html=1;align=center;" vertex="1" parent="1">
          <mxGeometry x="145" y="1490" width="120" height="60" as="geometry" />
        </mxCell>
        <mxCell id="noanhydr59FI3f60KECd-54" value="Alert e-mail" style="rounded=0;whiteSpace=wrap;html=1;align=center;" vertex="1" parent="1">
          <mxGeometry x="145" y="1590" width="120" height="40" as="geometry" />
        </mxCell>
      </root>
    </mxGraphModel>
  </diagram>
</mxfile>
